<svg width="20" height="21" viewBox="0 0 20 21" fill="none" xmlns="http://www.w3.org/2000/svg">
<path d="M10 0.666748C8.02219 0.666748 6.08879 1.25324 4.4443 2.35205C2.79981 3.45087 1.51809 5.01265 0.761209 6.83991C0.00433284 8.66717 -0.1937 10.6778 0.192152 12.6176C0.578004 14.5575 1.53041 16.3393 2.92894 17.7378C4.32746 19.1363 6.10929 20.0887 8.0491 20.4746C9.98891 20.8604 11.9996 20.6624 13.8268 19.9055C15.6541 19.1487 17.2159 17.8669 18.3147 16.2224C19.4135 14.578 20 12.6446 20 10.6667C19.9971 8.01547 18.9426 5.47363 17.0679 3.5989C15.1931 1.72416 12.6513 0.66966 10 0.666748ZM13.982 14.6487C13.7945 14.8362 13.5402 14.9415 13.275 14.9415C13.0098 14.9415 12.7555 14.8362 12.568 14.6487L9.294 11.3747C9.10695 11.1864 9.00136 10.9322 9 10.6667V6.66675C9 6.40153 9.10536 6.14718 9.2929 5.95964C9.48043 5.7721 9.73479 5.66675 10 5.66675C10.2652 5.66675 10.5196 5.7721 10.7071 5.95964C10.8946 6.14718 11 6.40153 11 6.66675V10.2527L13.982 13.2347C14.1695 13.4223 14.2748 13.6766 14.2748 13.9417C14.2748 14.2069 14.1695 14.4612 13.982 14.6487Z" fill="#05505C"/>
</svg>
