<svg width="288" height="63" viewBox="0 0 288 63" fill="none" xmlns="http://www.w3.org/2000/svg">
<path d="M161.533 0.970932C151.162 1.83422 145.417 3.95321 142.88 8.03422C139.821 12.9785 139.971 27.3406 143.104 31.8925C143.85 32.9912 146.089 34.7178 148.029 35.738C151.461 37.5431 152.431 37.6216 172.128 38.0925C192.497 38.5633 192.646 38.5633 194.064 40.4469C195.855 42.7228 195.855 44.6064 194.064 46.8823C192.646 48.7659 192.348 48.7659 178.172 49.0013C162.13 49.3152 159.966 48.8444 158.698 45.2342L157.877 42.8798H149.446H141.015V47.0393C141.015 52.7684 143.477 57.7127 147.208 59.6747C152.58 62.4216 170.561 63.2849 191.527 61.7152C209.508 60.4595 213.463 56.3785 212.493 40.133C212.045 33.2266 210.105 29.4595 205.629 27.0266C202.868 25.457 201.003 25.2216 183.917 24.7507C173.695 24.4368 164.369 24.1228 163.249 24.1228C158.549 23.9659 156.46 18.1583 160.19 15.6469C161.906 14.4697 164.369 14.1557 175.709 13.9988C188.543 13.6849 189.214 13.7633 191.229 15.4114C192.348 16.3532 193.243 17.6089 193.243 18.2368C193.243 19.1 194.885 19.3355 201.823 19.3355H210.404V15.9608C210.329 9.3684 206.599 3.87473 200.779 1.99118C198.167 1.12789 168.994 0.421562 161.533 0.970932Z" fill="white"/>
<path d="M235.399 1.20639C226.968 2.14816 223.163 3.40385 220.402 6.30765C215.403 11.5659 215.03 26.7127 219.806 32.5988C223.312 36.9937 225.924 37.5431 248.232 38.0925C270.168 38.5633 270.243 38.6418 271.213 42.9583C271.511 44.2925 271.213 45.5482 270.243 46.8823L268.751 48.7659H253.082C238.757 48.7659 237.265 48.6089 235.847 47.2747C234.952 46.4114 234.28 45.1558 234.28 44.2925C234.28 43.0368 233.534 42.8798 225.7 42.8798H217.12V47.0393C217.12 52.219 219.582 57.6342 222.79 59.5963C227.416 62.3431 246.516 63.2849 267.781 61.7152C279.196 60.9304 283.449 59.2823 286.284 54.7304C287.777 52.376 288 51.0418 288 43.3507C288 32.6773 287.03 30.0874 281.584 27.1836C278.152 25.3001 277.182 25.2216 260.021 24.6722C250.172 24.4368 240.995 24.2013 239.727 24.1228C235.026 23.9659 232.639 18.7861 235.772 15.8039C237.115 14.5482 238.981 14.3127 249.501 13.9988C264.498 13.5279 266.811 13.9203 268.452 17.0595L269.721 19.3355H278.152H286.508V16.7456C286.508 9.76081 282.703 3.87474 277.182 2.06968C273.526 0.970943 243.905 0.343094 235.399 1.20639Z" fill="white"/>
<path d="M0 8.74052V16.1962H12.3109H24.6218V38.9557V61.7152H33.2021H41.7824V38.9557V16.1962H54.8394H67.8964V8.74052V1.28482H33.9482H0V8.74052Z" fill="white"/>
<path d="M72.373 31.5V61.7152H104.456H136.539V55.0443V48.3734H113.036H89.5337V42.8798V37.3861H111.544H133.554V31.5V25.6139H111.544H89.4591L89.6829 20.2772L89.9067 15.019H113.26H136.539V8.11267V1.28482H104.456H72.373V31.5Z" fill="white"/>
</svg>
