<svg width="288" height="62" viewBox="0 0 288 62" fill="none" xmlns="http://www.w3.org/2000/svg">
<g clip-path="url(#clip0_1058_8906)">
<path d="M161.533 0.470931C151.162 1.33422 145.417 3.45321 142.88 7.53422C139.821 12.4785 139.971 26.8406 143.104 31.3925C143.85 32.4912 146.089 34.2178 148.029 35.238C151.461 37.0431 152.431 37.1216 172.128 37.5925C192.497 38.0633 192.646 38.0633 194.064 39.9469C195.855 42.2228 195.855 44.1064 194.064 46.3823C192.646 48.2659 192.348 48.2659 178.172 48.5013C162.13 48.8152 159.966 48.3444 158.698 44.7342L157.877 42.3798H149.446H141.015V46.5393C141.015 52.2684 143.477 57.2127 147.208 59.1747C152.58 61.9216 170.561 62.7849 191.527 61.2152C209.508 59.9595 213.463 55.8785 212.493 39.633C212.045 32.7266 210.105 28.9595 205.629 26.5266C202.868 24.957 201.003 24.7216 183.917 24.2507C173.695 23.9368 164.369 23.6228 163.249 23.6228C158.549 23.4659 156.46 17.6583 160.19 15.1469C161.906 13.9697 164.369 13.6557 175.709 13.4988C188.543 13.1849 189.214 13.2633 191.229 14.9114C192.348 15.8532 193.243 17.1089 193.243 17.7368C193.243 18.6 194.885 18.8355 201.823 18.8355H210.404V15.4608C210.329 8.8684 206.599 3.37473 200.779 1.49118C198.167 0.627893 168.994 -0.0784365 161.533 0.470931Z" fill="#0F1912"/>
<path d="M235.399 0.706385C226.968 1.64816 223.163 2.90385 220.402 5.80765C215.403 11.0659 215.03 26.2127 219.806 32.0988C223.312 36.4937 225.924 37.0431 248.232 37.5925C270.168 38.0633 270.243 38.1418 271.213 42.4583C271.511 43.7925 271.213 45.0482 270.243 46.3823L268.751 48.2659H253.082C238.757 48.2659 237.265 48.1089 235.847 46.7747C234.952 45.9114 234.28 44.6558 234.28 43.7925C234.28 42.5368 233.534 42.3798 225.7 42.3798H217.12V46.5393C217.12 51.719 219.582 57.1342 222.79 59.0963C227.416 61.8431 246.516 62.7849 267.781 61.2152C279.196 60.4304 283.449 58.7823 286.284 54.2304C287.777 51.876 288 50.5418 288 42.8507C288 32.1773 287.03 29.5874 281.584 26.6836C278.152 24.8001 277.182 24.7216 260.021 24.1722C250.172 23.9368 240.995 23.7013 239.727 23.6228C235.026 23.4659 232.639 18.2861 235.772 15.3039C237.115 14.0482 238.981 13.8127 249.501 13.4988C264.498 13.0279 266.811 13.4203 268.452 16.5595L269.721 18.8355H278.152H286.508V16.2456C286.508 9.26082 282.703 3.37474 277.182 1.56968C273.526 0.470942 243.905 -0.156906 235.399 0.706385Z" fill="#0F1912"/>
<path d="M0 8.24052V15.6962H12.3109H24.6218V38.4557V61.2152H33.2021H41.7824V38.4557V15.6962H54.8394H67.8964V8.24052V0.784826H33.9482H0V8.24052Z" fill="#0F1912"/>
<path d="M72.373 31V61.2152H104.456H136.539V54.5443V47.8734H113.036H89.5337V42.3798V36.8861H111.544H133.554V31V25.1139H111.544H89.4591L89.6829 19.7772L89.9067 14.519H113.26H136.539V7.61267V0.784826H104.456H72.373V31Z" fill="#0F1912"/>
</g>
<defs>
<clipPath id="clip0_1058_8906">
<rect width="288" height="62" fill="white"/>
</clipPath>
</defs>
</svg>
