<svg width="30" height="30" viewBox="0 0 30 30" fill="none" xmlns="http://www.w3.org/2000/svg">
<path d="M9.375 22.5C10.4105 22.5 11.25 23.3395 11.25 24.375C11.25 25.4105 10.4105 26.25 9.375 26.25C8.33946 26.25 7.5 25.4105 7.5 24.375C7.5 23.3395 8.33946 22.5 9.375 22.5Z" stroke="white"/>
<path d="M20.625 22.5001C21.6605 22.5001 22.5 23.3395 22.5 24.3751C22.5 25.4106 21.6605 26.2501 20.625 26.2501C19.5895 26.2501 18.75 25.4106 18.75 24.3751C18.75 23.3395 19.5895 22.5001 20.625 22.5001Z" stroke="white"/>
<path d="M16.25 16.25V13.75M16.25 13.75V11.25M16.25 13.75H18.75M16.25 13.75H13.75" stroke="white" stroke-linecap="round"/>
<path d="M2.5 3.75L2.82651 3.8648C4.4535 4.43681 5.267 4.72282 5.7323 5.40372C6.1976 6.08464 6.1976 6.98908 6.1976 8.79795V12.2C6.1976 15.877 6.27665 17.0904 7.35965 18.2327C8.44265 19.375 10.1857 19.375 13.6719 19.375H15M20.3005 19.375C22.2518 19.375 23.2274 19.375 23.917 18.813C24.6066 18.251 24.8036 17.2955 25.1975 15.3844L25.8223 12.3534C26.2561 10.1796 26.473 9.09271 25.9181 8.37135C25.3633 7.65 23.4673 7.65 21.361 7.65H13.7794M6.1976 7.65H8.75" stroke="white" stroke-linecap="round"/>
</svg>
