<svg width="35" height="35" viewBox="0 0 35 35" fill="none" xmlns="http://www.w3.org/2000/svg">
<path d="M10.9469 22.261C11.1078 22.8432 11.7102 23.1849 12.2924 23.024C12.8747 22.8632 13.2163 22.2607 13.0554 21.6784L10.9469 22.261ZM4.66769 6.89C4.08562 6.72851 3.48284 7.06945 3.32134 7.65152C3.15984 8.2336 3.50079 8.83638 4.08287 8.99788L4.66769 6.89ZM29.442 22.9329C30.0266 22.7811 30.3775 22.1839 30.2255 21.5992C30.0736 21.0146 29.4765 20.6639 28.8919 20.8158L29.442 22.9329ZM14.8721 25.6066C15.3236 27.2409 14.3325 28.9651 12.5768 29.4214L13.127 31.5387C16.0102 30.7894 17.772 27.889 16.9805 25.0241L14.8721 25.6066ZM12.5768 29.4214C10.8097 29.8807 9.03643 28.855 8.58113 27.207L6.47261 27.7894C7.26028 30.6406 10.2552 32.285 13.127 31.5387L12.5768 29.4214ZM8.58113 27.207C8.12963 25.5726 9.12069 23.8484 10.8764 23.3921L10.3262 21.2749C7.44297 22.0242 5.68113 24.9245 6.47261 27.7894L8.58113 27.207ZM10.8764 23.3921C12.6435 22.9329 14.4167 23.9585 14.8721 25.6066L16.9805 25.0241C16.1929 22.1729 13.1979 20.5287 10.3262 21.2749L10.8764 23.3921ZM13.0554 21.6784L9.91671 10.3173L7.80819 10.8998L10.9469 22.261L13.0554 21.6784ZM7.15225 7.57933L4.66769 6.89L4.08287 8.99788L6.56743 9.68721L7.15225 7.57933ZM9.91671 10.3173C9.54756 8.98111 8.48938 7.95032 7.15225 7.57933L6.56743 9.68721C7.18808 9.85941 7.6503 10.3283 7.80819 10.8998L9.91671 10.3173ZM16.2013 26.374L29.442 22.9329L28.8919 20.8158L15.6511 24.2568L16.2013 26.374Z" fill="black"/>
<path d="M27.9487 9.09388C27.2414 6.53367 26.8878 5.25356 25.848 4.67132C24.8083 4.08908 23.4884 4.4321 20.8488 5.1181L18.049 5.84572C15.4092 6.53172 14.0894 6.87472 13.4891 7.8832C12.8888 8.89167 13.2425 10.1718 13.9498 12.732L14.6999 15.4475C15.4072 18.0076 15.7608 19.2878 16.8006 19.8701C17.8404 20.4523 19.1604 20.1093 21.8 19.4233L24.5998 18.6957C27.2395 18.0097 28.5593 17.6667 29.1596 16.6581C29.4895 16.1042 29.5313 15.4684 29.3849 14.5833" stroke="#1E8755" stroke-linecap="round"/>
</svg>
