<svg width="30" height="30" viewBox="0 0 30 30" fill="none" xmlns="http://www.w3.org/2000/svg">
<path d="M19.1274 16.3709H18.2147C18.0948 16.6972 17.868 17.0489 17.5539 17.4121L19.1274 16.3709ZM19.1274 16.3709C18.9879 16.9614 18.6229 17.5138 18.2157 17.9845L18.2157 17.9845C17.8054 18.459 17.3141 18.894 16.8534 19.2571L16.3354 18.5512C16.7597 18.2152 17.1966 17.8253 17.5538 17.4122L19.1274 16.3709ZM13.6646 18.5512L13.1466 19.2571C12.6859 18.894 12.1946 18.459 11.7843 17.9846L11.7843 17.9845C11.3771 17.5138 11.0121 16.9614 10.8726 16.3709H11.7853C11.9052 16.6972 12.1321 17.049 12.4462 17.4122L13.6646 18.5512ZM13.6646 18.5512C13.2403 18.2151 12.8034 17.8252 12.4462 17.4122L13.6646 18.5512ZM15.9942 13.5758C15.9681 13.5509 15.9419 13.5263 15.9154 13.502C16.5103 13.2717 17.1135 13.2505 17.6525 13.4394L17.6525 13.4395C18.4485 13.7185 19.0062 14.4218 19.1506 15.3709H18.2623C18.134 14.7731 17.7751 14.4096 17.3631 14.2651L17.363 14.2651C16.9272 14.1124 16.3293 14.1688 15.7087 14.5969L16.0095 14.2828L16.3553 13.9216L15.9942 13.5758ZM12.6369 14.2651C12.2249 14.4096 11.866 14.7731 11.7377 15.3709H10.8494C10.9938 14.4218 11.5515 13.7185 12.3475 13.4395L12.3475 13.4394C12.8865 13.2505 13.4897 13.2717 14.0846 13.502C14.0581 13.5263 14.0319 13.5509 14.0058 13.5758L13.6447 13.9216L13.9905 14.2828L14.2912 14.5969C13.6707 14.1688 13.0728 14.1124 12.637 14.2651L12.6369 14.2651ZM15.5306 19.1446L16.0492 19.8515C15.8695 19.9726 15.6927 20.0737 15.5 20.1395V19.1646C15.51 19.1582 15.5202 19.1515 15.5306 19.1446ZM14.4694 19.1446C14.4798 19.1515 14.49 19.1582 14.5 19.1646V20.1395C14.3073 20.0736 14.1305 19.9726 13.9508 19.8515L14.4694 19.1446Z" fill="black" stroke="black"/>
<path d="M10 4.375C10 3.33946 10.8395 2.5 11.875 2.5H18.125C19.1605 2.5 20 3.33946 20 4.375V5.625C20 6.66054 19.1605 7.5 18.125 7.5H11.875C10.8395 7.5 10 6.66054 10 5.625V4.375Z" stroke="black"/>
<path d="M26.25 20.0003C26.25 23.5358 26.25 25.3036 25.1516 26.4019C24.0532 27.5003 22.2855 27.5003 18.75 27.5003H11.25C7.71446 27.5003 5.9467 27.5003 4.84835 26.4019C3.75 25.3036 3.75 23.5358 3.75 20.0003V16.2503M20 5.00244C22.7187 5.01758 24.1911 5.13814 25.1516 6.09862C26.25 7.19697 26.25 8.96474 26.25 12.5003V15.0003M10 5.00244C7.28121 5.01758 5.80882 5.13814 4.84835 6.09862C3.8879 7.05907 3.76731 8.53139 3.75217 11.25" stroke="black" stroke-linecap="round"/>
</svg>
