<svg width="35" height="35" viewBox="0 0 35 35" fill="none" xmlns="http://www.w3.org/2000/svg">
<path d="M32.0837 17.7974V20.0156C32.0837 25.7043 32.0837 28.5488 30.3751 30.316C28.6666 32.0834 25.9167 32.0834 20.417 32.0834H14.5837C9.08393 32.0834 6.33409 32.0834 4.62553 30.316C2.91699 28.5488 2.91699 25.7043 2.91699 20.0156V17.7974C2.91699 14.4601 2.91699 12.7915 3.67416 11.4082C4.43133 10.0249 5.81463 9.16639 8.5812 7.44938L11.4979 5.63921C14.4224 3.82419 15.8846 2.91669 17.5003 2.91669C19.116 2.91669 20.5783 3.82419 23.5028 5.63921L26.4195 7.44936C29.1861 9.16639 30.5693 10.0249 31.3265 11.4082" stroke="black" stroke-width="2" stroke-linecap="round"/>
<path d="M21.875 26.25H13.125" stroke="#1E8755" stroke-width="2" stroke-linecap="round"/>
</svg>
