<svg width="10" height="10" viewBox="0 0 10 10" fill="none" xmlns="http://www.w3.org/2000/svg">
<path d="M5 0C4.11301 0.00677876 3.26115 0.344937 2.61418 0.94709C1.96721 1.54924 1.57263 2.37118 1.50907 3.24911C1.44551 4.12703 1.71764 4.9965 2.27123 5.68423C2.82481 6.37197 3.61921 6.82748 4.49612 6.96V9.5C4.49612 9.63261 4.54921 9.75979 4.6437 9.85355C4.7382 9.94732 4.86636 10 5 10C5.13364 10 5.2618 9.94732 5.3563 9.85355C5.45079 9.75979 5.50388 9.63261 5.50388 9.5V6.96C6.38079 6.82748 7.17519 6.37197 7.72877 5.68423C8.28236 4.9965 8.55449 4.12703 8.49093 3.24911C8.42737 2.37118 8.03279 1.54924 7.38582 0.94709C6.73885 0.344937 5.88699 0.00677876 5 0ZM5 2.75C4.79954 2.75 4.6073 2.82902 4.46555 2.96967C4.32381 3.11032 4.24418 3.30109 4.24418 3.5C4.24418 3.63261 4.19109 3.75979 4.0966 3.85355C4.0021 3.94732 3.87394 4 3.7403 4C3.60666 4 3.4785 3.94732 3.384 3.85355C3.28951 3.75979 3.23642 3.63261 3.23642 3.5C3.23642 3.03587 3.42223 2.59075 3.75296 2.26256C4.0837 1.93437 4.53227 1.75 5 1.75C5.13364 1.75 5.2618 1.80268 5.3563 1.89645C5.45079 1.99021 5.50388 2.11739 5.50388 2.25C5.50388 2.38261 5.45079 2.50979 5.3563 2.60355C5.2618 2.69732 5.13364 2.75 5 2.75Z" fill="#005522"/>
</svg>
