<?xml version="1.0" standalone="no"?>
<!DOCTYPE svg PUBLIC "-//W3C//DTD SVG 20010904//EN"
 "http://www.w3.org/TR/2001/REC-SVG-20010904/DTD/svg10.dtd">
<svg version="1.0" xmlns="http://www.w3.org/2000/svg"
 width="386.000000pt" height="79.000000pt" viewBox="0 0 386.000000 79.000000"
 preserveAspectRatio="xMidYMid meet">
<metadata>
Created by potrace 1.16, written by Peter Selinger 2001-2019
</metadata>
<g transform="translate(0.000000,79.000000) scale(0.100000,-0.100000)"
fill="#000000" stroke="none">
<path d="M2165 784 c-139 -11 -216 -38 -250 -90 -41 -63 -39 -246 3 -304 10
-14 40 -36 66 -49 46 -23 59 -24 323 -30 273 -6 275 -6 294 -30 24 -29 24 -53
0 -82 -19 -24 -23 -24 -213 -27 -215 -4 -244 2 -261 48 l-11 30 -113 0 -113 0
0 -53 c0 -73 33 -136 83 -161 72 -35 313 -46 594 -26 241 16 294 68 281 275
-6 88 -32 136 -92 167 -37 20 -62 23 -291 29 -137 4 -262 8 -277 8 -63 2 -91
76 -41 108 23 15 56 19 208 21 172 4 181 3 208 -18 15 -12 27 -28 27 -36 0
-11 22 -14 115 -14 l115 0 0 43 c-1 84 -51 154 -129 178 -35 11 -426 20 -526
13z"/>
<path d="M3155 781 c-113 -12 -164 -28 -201 -65 -67 -67 -72 -260 -8 -335 47
-56 82 -63 381 -70 294 -6 295 -7 308 -62 4 -17 0 -33 -13 -50 l-20 -24 -210
0 c-192 0 -212 2 -231 19 -12 11 -21 27 -21 38 0 16 -10 18 -115 18 l-115 0 0
-53 c0 -66 33 -135 76 -160 62 -35 318 -47 603 -27 153 10 210 31 248 89 20
30 23 47 23 145 0 136 -13 169 -86 206 -46 24 -59 25 -289 32 -132 3 -255 6
-272 7 -63 2 -95 68 -53 106 18 16 43 19 184 23 201 6 232 1 254 -39 l17 -29
113 0 112 0 0 33 c0 89 -51 164 -125 187 -49 14 -446 22 -560 11z"/>
<path d="M0 685 l0 -95 165 0 165 0 0 -290 0 -290 115 0 115 0 0 290 0 290
175 0 175 0 0 95 0 95 -455 0 -455 0 0 -95z"/>
<path d="M970 395 l0 -385 430 0 430 0 0 85 0 85 -315 0 -315 0 0 70 0 70 295
0 295 0 0 75 0 75 -295 0 -296 0 3 68 3 67 313 0 312 0 0 88 0 87 -430 0 -430
0 0 -385z"/>
</g>
</svg>
