<svg width="20" height="20" viewBox="0 0 20 20" fill="none" xmlns="http://www.w3.org/2000/svg">
<path d="M19.8382 8.42606C19.7476 8.28386 19.6235 8.16699 19.4772 8.08607C19.331 8.00514 19.1673 7.96271 19.0009 7.96264H17.9857V6.94412C17.9857 6.40386 17.7752 5.88574 17.4004 5.50372C17.0256 5.1217 16.5173 4.90708 15.9873 4.90708H11.4339L9.03582 1.64782C8.84919 1.39536 8.60771 1.1904 8.33033 1.04903C8.05295 0.907655 7.74721 0.833715 7.43709 0.833008H1.99841C1.4684 0.833008 0.960096 1.04762 0.585321 1.42964C0.210546 1.81166 0 2.32979 0 2.87004V17.1293C0 17.6696 0.210546 18.1877 0.585321 18.5697C0.960096 18.9517 1.4684 19.1663 1.99841 19.1663H15.0041C15.1974 19.1664 15.3866 19.1092 15.5487 19.0018C15.7108 18.8945 15.8389 18.7414 15.9173 18.5613L19.9142 9.39468C19.9817 9.23956 20.0101 9.0697 19.9968 8.90054C19.9836 8.73139 19.929 8.56829 19.8382 8.42606ZM7.43709 2.87004L10.1349 6.53671C10.228 6.66321 10.3487 6.76588 10.4875 6.83659C10.6262 6.9073 10.7792 6.94412 10.9343 6.94412H15.9873V7.96264H4.99603C4.8027 7.96261 4.61351 8.01976 4.45141 8.12714C4.28931 8.23453 4.16125 8.38754 4.08275 8.56764L1.99841 13.3475V2.87004H7.43709ZM14.3546 17.1293H2.53698L5.64451 9.99967H17.4631L14.3546 17.1293Z" fill="#6B726F"/>
</svg>
